<svg width="20" height="20" viewBox="0 0 20 20" fill="none" xmlns="http://www.w3.org/2000/svg">
<path d="M5.83342 7.64174C5.98955 7.48653 6.20076 7.39941 6.42092 7.39941C6.64107 7.39941 6.85228 7.48653 7.00842 7.64174L10.0001 10.5917L12.9501 7.64174C13.1062 7.48653 13.3174 7.39941 13.5376 7.39941C13.7577 7.39941 13.9689 7.48653 14.1251 7.64174C14.2032 7.71921 14.2652 7.81138 14.3075 7.91293C14.3498 8.01448 14.3716 8.1234 14.3716 8.23341C14.3716 8.34342 14.3498 8.45234 14.3075 8.55389C14.2652 8.65544 14.2032 8.74761 14.1251 8.82507L10.5918 12.3584C10.5143 12.4365 10.4221 12.4985 10.3206 12.5408C10.219 12.5831 10.1101 12.6049 10.0001 12.6049C9.89007 12.6049 9.78115 12.5831 9.6796 12.5408C9.57805 12.4985 9.48589 12.4365 9.40842 12.3584L5.83342 8.82507C5.75531 8.74761 5.69332 8.65544 5.65101 8.55389C5.6087 8.45234 5.58692 8.34342 5.58692 8.23341C5.58692 8.1234 5.6087 8.01448 5.65101 7.91293C5.69332 7.81138 5.75531 7.71921 5.83342 7.64174Z" fill="#71839B"/>
</svg>
