<svg width="24" height="25" viewBox="0 0 24 25" fill="none" xmlns="http://www.w3.org/2000/svg">
<path d="M10.5766 9.20419C11.2099 8.06806 11.5266 7.5 12 7.5C12.4734 7.5 12.7901 8.06806 13.4234 9.20419L13.5873 9.49812C13.7672 9.82097 13.8572 9.98239 13.9975 10.0889C14.1378 10.1954 14.3126 10.235 14.6621 10.314L14.9802 10.386C16.2101 10.6643 16.825 10.8034 16.9713 11.2739C17.1176 11.7443 16.6984 12.2345 15.86 13.215L15.643 13.4686C15.4048 13.7472 15.2857 13.8865 15.2321 14.0589C15.1785 14.2312 15.1965 14.4171 15.2325 14.7888L15.2653 15.1272C15.3921 16.4353 15.4554 17.0894 15.0724 17.3801C14.6894 17.6709 14.1137 17.4058 12.9622 16.8756L12.6643 16.7384C12.337 16.5878 12.1734 16.5124 12 16.5124C11.8266 16.5124 11.663 16.5878 11.3357 16.7384L11.0378 16.8756C9.88634 17.4058 9.31059 17.6709 8.92757 17.3801C8.54456 17.0894 8.60794 16.4353 8.7347 15.1272L8.76749 14.7888C8.80351 14.4171 8.82152 14.2312 8.76793 14.0589C8.71434 13.8865 8.59521 13.7472 8.35696 13.4686L8.14005 13.215C7.30162 12.2345 6.88241 11.7443 7.02871 11.2739C7.17501 10.8034 7.78993 10.6643 9.01977 10.386L9.33794 10.314C9.68743 10.235 9.86217 10.1954 10.0025 10.0889C10.1428 9.98239 10.2328 9.82097 10.4127 9.49812L10.5766 9.20419Z" fill="#00535C"/>
<path fill-rule="evenodd" clip-rule="evenodd" d="M12 1.75C12.4142 1.75 12.75 2.08579 12.75 2.5V4.5C12.75 4.91421 12.4142 5.25 12 5.25C11.5858 5.25 11.25 4.91421 11.25 4.5V2.5C11.25 2.08579 11.5858 1.75 12 1.75ZM18.5304 5.96955C18.8233 6.26245 18.8233 6.73732 18.5304 7.03021L18.1872 7.37348C17.8943 7.66637 17.4194 7.66637 17.1265 7.37348C16.8336 7.08058 16.8336 6.60571 17.1265 6.31282L17.4698 5.96955C17.7627 5.67666 18.2376 5.67666 18.5304 5.96955ZM5.46967 5.96967C5.76256 5.67678 6.23744 5.67678 6.53033 5.96967L6.87359 6.31293C7.16648 6.60582 7.16648 7.0807 6.87359 7.37359C6.5807 7.66648 6.10582 7.66648 5.81293 7.37359L5.46967 7.03033C5.17678 6.73744 5.17678 6.26256 5.46967 5.96967ZM1.25 12.5C1.25 12.0858 1.58579 11.75 2 11.75H4C4.41421 11.75 4.75 12.0858 4.75 12.5C4.75 12.9142 4.41421 13.25 4 13.25H2C1.58579 13.25 1.25 12.9142 1.25 12.5ZM19.25 12.5C19.25 12.0858 19.5858 11.75 20 11.75H22C22.4142 11.75 22.75 12.0858 22.75 12.5C22.75 12.9142 22.4142 13.25 22 13.25H20C19.5858 13.25 19.25 12.9142 19.25 12.5ZM6.87348 17.6265C7.16637 17.9194 7.16637 18.3943 6.87348 18.6872L6.53043 19.0302C6.23754 19.3231 5.76266 19.3231 5.46977 19.0302C5.17688 18.7373 5.17688 18.2625 5.46977 17.9696L5.81282 17.6265C6.10571 17.3336 6.58058 17.3336 6.87348 17.6265ZM17.1265 17.6267C17.4194 17.3339 17.8943 17.3339 18.1872 17.6267L18.5302 17.9698C18.8231 18.2627 18.8231 18.7376 18.5302 19.0305C18.2373 19.3233 17.7624 19.3233 17.4695 19.0305L17.1265 18.6874C16.8336 18.3945 16.8336 17.9196 17.1265 17.6267ZM12 19.75C12.4142 19.75 12.75 20.0858 12.75 20.5V22.5C12.75 22.9142 12.4142 23.25 12 23.25C11.5858 23.25 11.25 22.9142 11.25 22.5V20.5C11.25 20.0858 11.5858 19.75 12 19.75Z" fill="#00535C"/>
</svg>
