<svg width="16" height="16" viewBox="0 0 16 16" fill="none" xmlns="http://www.w3.org/2000/svg">
<path d="M7.33203 6.0026H8.66536V4.66927H7.33203V6.0026ZM7.9987 13.3359C5.0587 13.3359 2.66536 10.9426 2.66536 8.0026C2.66536 5.0626 5.0587 2.66927 7.9987 2.66927C10.9387 2.66927 13.332 5.0626 13.332 8.0026C13.332 10.9426 10.9387 13.3359 7.9987 13.3359ZM7.9987 1.33594C7.12322 1.33594 6.25631 1.50838 5.44747 1.84341C4.63864 2.17844 3.90371 2.6695 3.28465 3.28856C2.03441 4.5388 1.33203 6.23449 1.33203 8.0026C1.33203 9.77071 2.03441 11.4664 3.28465 12.7166C3.90371 13.3357 4.63864 13.8268 5.44747 14.1618C6.25631 14.4968 7.12322 14.6693 7.9987 14.6693C9.76681 14.6693 11.4625 13.9669 12.7127 12.7166C13.963 11.4664 14.6654 9.77071 14.6654 8.0026C14.6654 7.12712 14.4929 6.26022 14.1579 5.45138C13.8229 4.64254 13.3318 3.90762 12.7127 3.28856C12.0937 2.6695 11.3588 2.17844 10.5499 1.84341C9.74108 1.50838 8.87418 1.33594 7.9987 1.33594ZM7.33203 11.3359H8.66536V7.33594H7.33203V11.3359Z" fill="#F49D1B"/>
</svg>
