<svg width="126" height="25" viewBox="0 0 126 25" fill="none" xmlns="http://www.w3.org/2000/svg">
<g clip-path="url(#clip0_1_797)">
<path d="M21.0452 24.8239H4.95479C2.49468 24.8239 0.5 22.8433 0.5 20.4005V4.42342C0.5 1.98063 2.49468 0 4.95479 0H21.0452C23.5053 0 25.5 1.98063 25.5 4.42342V20.4005C25.5 22.8433 23.5053 24.8239 21.0452 24.8239Z" fill="#00535C"/>
<path d="M18.762 17.255C16.3684 20.402 11.825 21.0402 8.65565 18.6414C5.46416 16.2646 4.84359 11.7532 7.25937 8.60618C9.1654 6.09738 12.4899 5.12907 15.4597 6.18541L16.5679 4.73294L16.59 4.71094C17.1441 4.95301 17.676 5.23911 18.1636 5.59122L18.1415 5.61323L17.0776 7.02168L15.9916 8.43013L14.9278 9.83858L14.9056 9.86059L10.5395 15.6044L10.5174 15.6264C10.0298 15.1863 9.67515 14.6581 9.49785 14.0419L9.52001 14.0199L13.0883 9.33242L13.1104 9.31041L14.3294 7.7039C13.9083 7.59386 13.465 7.54985 13.0218 7.54985C12.7558 7.54985 12.512 7.57185 12.2682 7.59386C9.29838 8.01199 7.23721 10.7409 7.65831 13.6898C8.05724 16.6388 10.8055 18.6854 13.7753 18.2673C16.7452 17.8491 18.8064 15.1203 18.3853 12.1713C18.2966 11.5331 18.0971 10.9169 17.7869 10.3667L16.5457 11.9953L16.5236 12.0173L13.0661 16.5727L13.0439 16.5947H12.9775C12.3569 16.5947 11.7142 16.4407 11.1822 16.1106L11.2044 16.0886L15.5705 10.3667V10.3447L16.6344 8.93629L17.7204 7.50583L18.7842 6.09738L18.8064 6.07537C19.2718 6.4715 19.6929 6.88964 20.0697 7.35178L20.0475 7.37379L18.9393 8.82625C20.7124 11.4011 20.6237 14.7902 18.762 17.255Z" fill="white"/>
<path d="M36.6709 12.1929C36.0504 12.1709 35.4741 12.3689 34.9865 12.743C34.4989 13.1392 34.1665 13.6673 34.0335 14.2835H39.4413C39.264 13.6673 38.9094 13.1392 38.4218 12.743C37.9121 12.3689 37.2915 12.1709 36.6709 12.1929ZM42.4333 15.4499C42.4333 15.736 42.4112 16.0441 42.3669 16.3302H33.9449C34.0335 16.9904 34.3438 17.6066 34.8536 18.0687C35.3633 18.4869 36.006 18.7069 36.6709 18.6849C37.1585 18.6849 37.6461 18.5749 38.0672 18.3328C38.4661 18.1128 38.7986 17.7826 39.0202 17.3865H42.1895C41.8349 18.5529 41.0814 19.5432 40.1062 20.2694C38.2223 21.5679 35.7401 21.6779 33.7454 20.5775C32.8589 20.0714 32.1497 19.3451 31.6621 18.4649C30.6647 16.6163 30.6647 14.3716 31.6621 12.523C32.1497 11.6427 32.8589 10.9165 33.7454 10.4323C35.6071 9.41997 37.8677 9.41997 39.7073 10.4543C40.5716 10.9605 41.2809 11.6867 41.7463 12.567C42.2117 13.4253 42.4555 14.4156 42.4333 15.4499Z" fill="#193F52"/>
<path d="M47.7738 17.6265C48.9927 18.7709 50.8988 18.7709 52.1177 17.6265C53.3145 16.4602 53.3589 14.5456 52.1621 13.3352C51.5858 12.741 50.7658 12.4109 49.9457 12.4109C49.1257 12.3889 48.35 12.697 47.7738 13.2692C46.6213 14.5015 46.6213 16.3942 47.7738 17.6265ZM53.6691 9.92408H55.9298V20.9716H53.5583L53.2924 19.9813C52.295 20.8396 51.0096 21.3237 49.702 21.3017C48.6603 21.3237 47.6186 21.0596 46.7099 20.5535C45.8234 20.0693 45.1142 19.3211 44.6266 18.4408C44.1168 17.5165 43.8509 16.5042 43.8509 15.4478C43.8287 14.4135 44.0947 13.3792 44.6044 12.4769C45.092 11.5966 45.8234 10.8704 46.6878 10.3862C47.5965 9.88007 48.6381 9.61598 49.702 9.63799C51.0539 9.61598 52.3615 10.1001 53.3589 10.9804L53.6691 9.92408Z" fill="#193F52"/>
<path d="M64.5084 9.90234H65.5058V12.7413H64.1981C63.3559 12.7413 62.7575 12.9393 62.3808 13.3354C62.0262 13.7316 61.8267 14.3918 61.8267 15.2941V21.0599H58.8125V9.94636H60.7407L61.2726 11.3108C62.0483 10.3645 63.1121 9.90234 64.5084 9.90234Z" fill="#193F52"/>
<path d="M73.5274 9.68359C74.7907 9.68359 75.7881 10.1017 76.5416 10.938C77.2952 11.7743 77.6498 12.8966 77.6498 14.3051V21.0172H74.6577V14.7892C74.6577 13.1387 74.015 12.3024 72.7074 12.3024C72.0203 12.2584 71.3333 12.5665 70.89 13.0727C70.4468 13.5788 70.2251 14.3051 70.2251 15.1854V20.9952H67.2109V9.94768H69.2721L69.8483 11.3121C70.2916 10.806 70.8457 10.3878 71.4441 10.1237C72.109 9.83764 72.8182 9.68359 73.5274 9.68359Z" fill="#193F52"/>
<path d="M80.4219 9.94658H83.4361V21.0161H80.4219V9.94658ZM80.4219 5.69922H83.4139V8.47211H80.4219V5.69922Z" fill="#193F52"/>
<path d="M89.9733 17.6486C91.1923 18.7929 93.0983 18.7929 94.3173 17.6486C95.4698 16.4162 95.4698 14.5236 94.3173 13.3132C93.0983 12.1688 91.1923 12.1688 89.9733 13.3132C88.8208 14.5236 88.8208 16.4162 89.9733 17.6486ZM92.3891 9.63799C93.4308 9.61598 94.4724 9.88007 95.3811 10.3862C96.2676 10.8704 96.9769 11.5966 97.4645 12.4769C98.4618 14.3475 98.4618 16.5922 97.4645 18.4628C96.9769 19.3431 96.2455 20.0693 95.3811 20.5755C94.4724 21.0817 93.4308 21.3457 92.3891 21.3237C91.3031 21.3457 90.2171 21.0156 89.3306 20.3994V24.9769H86.3164V9.94609H88.3111L88.8208 10.9584C89.796 10.1001 91.0593 9.61598 92.3891 9.63799Z" fill="#193F52"/>
<path d="M103.559 17.6265C104.778 18.7709 106.684 18.7709 107.903 17.6265C109.055 16.3942 109.055 14.5015 107.903 13.2912C106.684 12.1468 104.778 12.1468 103.559 13.2912C102.406 14.5015 102.406 16.3942 103.559 17.6265ZM109.454 9.92408H111.715V20.9716H109.343L109.078 19.9813C108.08 20.8616 106.795 21.3237 105.465 21.3017C104.423 21.3237 103.382 21.0596 102.473 20.5535C101.586 20.0693 100.877 19.3211 100.39 18.4408C99.8798 17.5165 99.6139 16.4822 99.636 15.4478C99.6139 14.4135 99.8798 13.3792 100.39 12.4769C100.877 11.5966 101.609 10.8704 102.473 10.3862C103.382 9.88007 104.423 9.61598 105.465 9.63799C106.817 9.61598 108.125 10.1001 109.122 10.9804L109.454 9.92408Z" fill="#193F52"/>
<path d="M122.288 9.94779H125.502L120.648 20.8633C120.293 21.7216 119.828 22.5358 119.296 23.2841C118.897 23.8342 118.365 24.2744 117.767 24.5825C117.102 24.8686 116.37 25.0226 115.639 25.0006H114.398V22.2937H115.44C116.149 22.2937 116.659 22.1617 116.969 21.8976C117.279 21.6335 117.589 21.0834 117.944 20.2251L117.988 20.137L113.268 9.92578H116.548L119.518 16.748L122.288 9.94779Z" fill="#193F52"/>
</g>
<defs>
<clipPath id="clip0_1_797">
<rect width="125" height="25" fill="white" transform="translate(0.5)"/>
</clipPath>
</defs>
</svg>
