<svg width="31" height="32" viewBox="0 0 31 32" fill="none" xmlns="http://www.w3.org/2000/svg">
<path d="M2.52992 22.7696C2.31727 24.1636 3.268 25.1312 4.43205 25.6134C8.89481 27.4622 15.1052 27.4622 19.5679 25.6134C20.732 25.1312 21.6827 24.1636 21.4701 22.7696C21.3394 21.9129 20.6932 21.1995 20.2144 20.5029C19.5873 19.5793 19.525 18.5718 19.5249 17.5C19.5249 13.3579 16.1559 10 12 10C7.84413 10 4.47513 13.3579 4.47513 17.5C4.47503 18.5718 4.41272 19.5793 3.78561 20.5029C3.30684 21.1995 2.66061 21.9129 2.52992 22.7696Z" stroke="black" stroke-width="1.5" stroke-linecap="round" stroke-linejoin="round"/>
<path d="M8 27C8.45849 28.7252 10.0755 30 12 30C13.9245 30 15.5415 28.7252 16 27" stroke="black" stroke-width="1.5" stroke-linecap="round" stroke-linejoin="round"/>
<rect x="11" width="20" height="20" rx="10" fill="#F49D1B"/>
<path d="M17.9828 14V12.932L21.2108 10.184C21.6508 9.816 21.9788 9.48 22.1948 9.176C22.4188 8.864 22.5308 8.524 22.5308 8.156C22.5308 7.684 22.3868 7.32 22.0988 7.064C21.8108 6.8 21.4228 6.668 20.9348 6.668C20.4548 6.668 20.0668 6.82 19.7708 7.124C19.4748 7.428 19.3268 7.84 19.3268 8.36V8.504H17.9948V8.288C17.9948 7.48 18.2628 6.82 18.7988 6.308C19.3428 5.788 20.0548 5.528 20.9348 5.528C21.8628 5.528 22.5828 5.76 23.0948 6.224C23.6148 6.688 23.8748 7.312 23.8748 8.096C23.8748 8.664 23.7268 9.164 23.4308 9.596C23.1348 10.02 22.6908 10.48 22.0988 10.976L19.8668 12.836H23.9348V14H17.9828Z" fill="white"/>
</svg>
