<svg width="22" height="22" viewBox="0 0 22 22" fill="none" xmlns="http://www.w3.org/2000/svg">
<path d="M15.5833 18.7918H6.41659C3.66659 18.7918 1.83325 17.4168 1.83325 14.2085V7.79183C1.83325 4.5835 3.66659 3.2085 6.41659 3.2085H15.5833C18.3333 3.2085 20.1666 4.5835 20.1666 7.79183V14.2085C20.1666 17.4168 18.3333 18.7918 15.5833 18.7918Z" stroke="#4A5564" stroke-width="1.76" stroke-miterlimit="10" stroke-linecap="round" stroke-linejoin="round"/>
<path d="M11 13.75C12.5188 13.75 13.75 12.5188 13.75 11C13.75 9.48122 12.5188 8.25 11 8.25C9.48122 8.25 8.25 9.48122 8.25 11C8.25 12.5188 9.48122 13.75 11 13.75Z" stroke="#4A5564" stroke-width="1.76" stroke-miterlimit="10" stroke-linecap="round" stroke-linejoin="round"/>
<path d="M5.04175 8.7085V13.2918" stroke="#4A5564" stroke-width="1.76" stroke-miterlimit="10" stroke-linecap="round" stroke-linejoin="round"/>
<path d="M16.9583 8.7085V13.2918" stroke="#4A5564" stroke-width="1.76" stroke-miterlimit="10" stroke-linecap="round" stroke-linejoin="round"/>
</svg>
