<svg width="48" height="49" viewBox="0 0 48 49" fill="none" xmlns="http://www.w3.org/2000/svg">
<g filter="url(#filter0_d_1_13026)">
<circle cx="24" cy="23" r="11.76" stroke="white" stroke-width="0.48"/>
<path d="M26.0814 20.4185C27.6938 21.5146 28.5 22.0627 28.5 23C28.5 23.9374 27.6938 24.4854 26.0814 25.5815C25.6363 25.8841 25.1948 26.169 24.7892 26.4064C24.4333 26.6147 24.0302 26.8301 23.6129 27.0416C22.0043 27.8567 21.2 28.2643 20.4786 27.813C19.7573 27.3618 19.6917 26.4171 19.5606 24.5277C19.5235 23.9934 19.5 23.4696 19.5 23C19.5 22.5305 19.5235 22.0067 19.5606 21.4724C19.6917 19.583 19.7573 18.6383 20.4786 18.187C21.2 17.7358 22.0043 18.1434 23.6129 18.9585C24.0302 19.17 24.4333 19.3854 24.7892 19.5937C25.1948 19.8311 25.6363 20.116 26.0814 20.4185Z" fill="white"/>
</g>
<defs>
<filter id="filter0_d_1_13026" x="0" y="0.8" width="48" height="48" filterUnits="userSpaceOnUse" color-interpolation-filters="sRGB">
<feFlood flood-opacity="0" result="BackgroundImageFix"/>
<feColorMatrix in="SourceAlpha" type="matrix" values="0 0 0 0 0 0 0 0 0 0 0 0 0 0 0 0 0 0 127 0" result="hardAlpha"/>
<feOffset dy="1.8"/>
<feGaussianBlur stdDeviation="6"/>
<feComposite in2="hardAlpha" operator="out"/>
<feColorMatrix type="matrix" values="0 0 0 0 0 0 0 0 0 0 0 0 0 0 0 0 0 0 0.16 0"/>
<feBlend mode="normal" in2="BackgroundImageFix" result="effect1_dropShadow_1_13026"/>
<feBlend mode="normal" in="SourceGraphic" in2="effect1_dropShadow_1_13026" result="shape"/>
</filter>
</defs>
</svg>
