<svg width="25" height="24" viewBox="0 0 25 24" fill="none" xmlns="http://www.w3.org/2000/svg">
<path d="M14.7199 21.6298C13.5399 21.6298 11.8699 20.7998 10.5499 16.8298L9.82988 14.6698L7.66988 13.9498C3.70988 12.6298 2.87988 10.9598 2.87988 9.77983C2.87988 8.60983 3.70988 6.92983 7.66988 5.59983L16.1599 2.76983C18.2799 2.05983 20.0499 2.26983 21.1399 3.34983C22.2299 4.42983 22.4399 6.20983 21.7299 8.32983L18.8999 16.8198C17.5699 20.7998 15.8999 21.6298 14.7199 21.6298ZM8.13988 7.02983C5.35988 7.95983 4.36988 9.05983 4.36988 9.77983C4.36988 10.4998 5.35988 11.5998 8.13988 12.5198L10.6599 13.3598C10.8799 13.4298 11.0599 13.6098 11.1299 13.8298L11.9699 16.3498C12.8899 19.1298 13.9999 20.1198 14.7199 20.1198C15.4399 20.1198 16.5399 19.1298 17.4699 16.3498L20.2999 7.85983C20.8099 6.31983 20.7199 5.05983 20.0699 4.40983C19.4199 3.75983 18.1599 3.67983 16.6299 4.18983L8.13988 7.02983Z" fill="#00535C"/>
<path d="M10.6098 14.4C10.4198 14.4 10.2298 14.33 10.0798 14.18C9.7898 13.89 9.7898 13.41 10.0798 13.12L13.6598 9.53C13.9498 9.24 14.4298 9.24 14.7198 9.53C15.0098 9.82 15.0098 10.3 14.7198 10.59L11.1398 14.18C10.9998 14.33 10.7998 14.4 10.6098 14.4Z" fill="#00535C"/>
</svg>
